<svg width="148" height="149" viewBox="0 0 148 149" fill="none" xmlns="http://www.w3.org/2000/svg">
<path d="M142.755 103.983C139.42 101.156 135.034 99.9423 130.707 100.663L88.7187 107.663C88.5016 104.037 87.0462 100.653 84.4611 98.0676C81.6687 95.2802 78.0081 93.7706 74.0071 93.7656C47.3022 93.8446 29.6847 93.8495 25.7922 93.7755C23.0739 90.7463 19.1764 88.8026 14.8004 88.8026H4.93348C2.2102 88.8026 0 91.0127 0 93.736V143.071C0 145.794 2.2102 148.004 4.93348 148.004H14.8004C19.1567 148.004 23.0393 146.075 25.7527 143.071H74.0021C74.3475 143.071 74.6977 143.036 75.0332 142.962L136.258 129.844C143.061 128.384 147.999 122.276 147.999 115.315C148.004 110.939 146.09 106.81 142.755 103.983ZM14.8004 138.137H9.86695V98.6695H14.8004C17.5188 98.6695 19.7339 100.885 19.7339 103.603V133.204C19.7339 135.922 17.5188 138.137 14.8004 138.137ZM134.195 120.194L73.4792 133.204H29.6009V103.672C35.7381 103.721 48.1655 103.707 74.0317 103.633C74.0367 103.633 74.0416 103.633 74.0465 103.633C75.349 103.633 76.5675 104.136 77.4901 105.053C78.4225 105.986 78.9356 107.224 78.9356 108.551C78.9356 111.265 76.7303 113.47 74.0169 113.47H49.3348C46.6115 113.47 44.4013 115.68 44.4013 118.403C44.4013 121.127 46.6115 123.337 49.3348 123.337H74.0169C78.4324 123.337 82.3594 121.349 85.0728 118.27L132.331 110.391C133.801 110.155 135.236 110.544 136.376 111.506C137.511 112.473 138.137 113.825 138.137 115.315C138.137 117.654 136.48 119.706 134.195 120.194ZM64.1352 88.8026H83.8691C108.349 88.8026 128.27 68.8812 128.27 44.4013C128.27 19.9214 108.349 0 83.8691 0H64.1352C39.6553 0 19.7339 19.9214 19.7339 44.4013C19.7339 68.8812 39.6553 88.8026 64.1352 88.8026ZM118.403 44.4013C118.403 60.0601 107.92 73.2917 93.6127 77.5148C102.745 69.3745 108.536 57.5638 108.536 44.4013C108.536 31.2388 102.745 19.428 93.6127 11.2878C107.92 15.5108 118.403 28.7424 118.403 44.4013ZM64.1352 9.86695C83.1784 9.86695 98.6695 25.3581 98.6695 44.4013C98.6695 63.4445 83.1784 78.9356 64.1352 78.9356C45.092 78.9356 29.6009 63.4445 29.6009 44.4013C29.6009 25.3581 45.092 9.86695 64.1352 9.86695Z" fill="#A2A2A3"/>
</svg>
