<svg width="147" height="147" viewBox="0 0 147 147" fill="none" xmlns="http://www.w3.org/2000/svg">
<path d="M77.9893 0.5625C62.773 0.5625 50.3892 12.9557 50.3892 28.1719C50.3892 32.8798 51.5852 37.3052 53.6733 41.188C50.5971 39.0577 47.0463 37.6211 43.2363 37.106C35.5544 36.0676 28.0144 39.042 22.6963 44.667C22.258 44.8122 21.8738 45.0863 21.5939 45.4534C21.3139 45.8206 21.1513 46.2637 21.1272 46.7247C21.1032 47.1858 21.2188 47.6434 21.459 48.0377C21.6992 48.4319 22.0529 48.7445 22.4736 48.9346C22.5313 48.9618 22.5901 48.9865 22.6499 49.0088C26.23 50.2681 29.2975 52.5444 31.584 55.4751C25.7388 60.1502 21.0866 65.7335 18.0762 71.9702L18.0854 71.9146L18.4102 71.2651H16.3599C7.50575 71.2651 0.300781 78.4605 0.300781 87.3149V96.4902C0.300781 105.345 7.50575 112.54 16.3599 112.54H21.416L21.0171 111.39C21.0835 111.577 21.1739 111.755 21.2861 111.918C25.4968 118.129 31.4058 123.422 38.4585 127.56V144.231C38.4442 145.507 39.474 146.55 40.75 146.551H59.0913C60.36 146.555 61.3909 145.528 61.3921 144.259V135.594C72.127 137.405 83.1501 136.764 93.4917 133.841V144.25C93.4929 145.515 94.5181 146.54 95.7832 146.542H114.134C115.399 146.54 116.424 145.515 116.425 144.25V122.226C131.128 110.029 136.447 92.4941 131.102 76.5532C137.675 72.0844 139.682 66.675 139.934 61.7744C143.372 58.4504 146.246 53.3437 146.586 43.999C146.602 43.6818 146.555 43.3645 146.446 43.066C146.337 42.7675 146.17 42.4938 145.954 42.2611C145.737 42.0284 145.477 41.8415 145.187 41.7113C144.897 41.5812 144.584 41.5105 144.267 41.5034C143.955 41.4973 143.645 41.5527 143.354 41.6664C143.064 41.7801 142.798 41.9499 142.574 42.1662C142.349 42.3824 142.169 42.6408 142.044 42.9267C141.919 43.2125 141.851 43.5201 141.845 43.832C141.653 49.1074 140.535 52.4038 139.303 55.0576C138.214 53.0327 136.704 51.3435 134.46 50.9663C133.02 50.7241 131.438 51.0948 130.156 51.9868C128.873 52.877 127.848 54.2078 127.02 55.9297C126.989 55.9994 126.961 56.0706 126.937 56.1431C125.873 59.0634 126.473 62.1028 128.356 63.9268C130.049 65.5669 132.608 65.8021 135.073 65.2905C134.095 67.4866 132.298 69.8076 129.293 72.0166C128.051 69.4077 126.53 66.8579 124.673 64.4092C118.373 56.1026 109.34 49.8832 99.0117 46.0122C103.109 41.1956 105.599 34.9729 105.599 28.1719C105.599 12.9557 93.2055 0.5625 77.9893 0.5625ZM110.302 4.08789V8.59668H105.803V13.3467H110.302V17.8462H115.052V13.3467H119.561V8.59668H115.052V4.08789H110.302ZM77.9893 5.3125C90.6384 5.3125 100.849 15.5231 100.849 28.1719C100.849 40.8211 90.6384 51.022 77.9893 51.022C65.3401 51.022 55.1392 40.8211 55.1392 28.1719C55.1392 15.5231 65.3401 5.3125 77.9893 5.3125ZM39.2935 8.6709C35.5206 8.6709 32.4095 11.7818 32.4097 15.5547C32.4099 19.3271 35.5209 22.4385 39.2935 22.4385C43.066 22.4385 46.1678 19.3271 46.168 15.5547C46.1682 11.7818 43.0663 8.6709 39.2935 8.6709ZM39.2935 13.2632C40.5873 13.2632 41.585 14.2608 41.585 15.5547C41.5849 16.8481 40.5872 17.8462 39.2935 17.8462C37.9997 17.8462 37.002 16.8481 37.002 15.5547C37.0019 14.2608 37.9996 13.2632 39.2935 13.2632ZM40.5181 41.4941C41.2133 41.5006 41.9188 41.5566 42.624 41.6519C49.1633 42.5358 54.8297 46.6934 57.6997 52.7383C57.8187 53.0257 57.995 53.2858 58.2177 53.503C58.4405 53.7201 58.705 53.8896 58.9954 54.0013C59.2857 54.113 59.5957 54.1644 59.9065 54.1525C60.2174 54.1406 60.5225 54.0656 60.8035 53.9321C61.0844 53.7985 61.3352 53.6092 61.5407 53.3757C61.7462 53.1422 61.902 52.8693 61.9987 52.5737C62.0955 52.278 62.131 51.9658 62.1033 51.656C62.0756 51.3462 61.9851 51.0452 61.8374 50.7715C61.761 50.6105 61.6573 50.4665 61.5776 50.3076C66.1715 53.7227 71.8395 55.772 77.9893 55.772C84.5636 55.772 90.608 53.4465 95.3564 49.5933C105.829 53.1168 114.932 59.1591 121.018 67.1831C133.883 84.1482 130.623 105.378 112.807 119.489C112.628 119.632 112.472 119.801 112.343 119.99L112.241 120.129C111.98 120.512 111.841 120.964 111.842 121.428V141.949H98.084V131.15C98.0841 130.824 98.0145 130.501 97.8799 130.204L97.8428 130.139C97.3597 129.069 96.1464 128.536 95.0317 128.905C83.9487 132.565 71.6086 133.276 59.9541 130.918C59.2943 130.785 58.6091 130.947 58.0801 131.364L57.6719 131.688C57.1212 132.123 56.7999 132.787 56.7998 133.488V141.949H43.0415V126.465C43.0431 125.77 42.7292 125.111 42.188 124.675L41.6313 124.239C41.5379 124.163 41.4386 124.095 41.3345 124.035C34.6066 120.199 29.1277 115.219 25.229 109.534H25.2197C24.8982 108.611 24.0268 107.992 23.0488 107.994H16.3599C11.7634 107.994 7.88051 105.351 6.04346 101.5H13.2612V96.75H4.91162C4.91018 96.6741 4.89307 96.6036 4.89307 96.5273V94.2915H9.31836V89.7085H4.89307V87.3521C4.89307 80.9595 9.96745 75.8853 16.3599 75.8853H19.8296C20.702 75.8877 21.5002 75.3951 21.8892 74.6143L22.1953 73.9927H22.2046C24.8113 68.5918 28.8693 63.6793 34.0054 59.4736C34.4676 60.49 34.8737 61.5452 35.165 62.6465C35.236 62.9439 35.3657 63.2241 35.5465 63.4707C35.7273 63.7173 35.9556 63.9252 36.2179 64.0823C36.4803 64.2393 36.7714 64.3424 37.0741 64.3853C37.3768 64.4282 37.6851 64.4102 37.9808 64.3323C38.2764 64.2543 38.5535 64.1181 38.7958 63.9315C39.038 63.7449 39.2405 63.5118 39.3913 63.2458C39.5421 62.9798 39.6383 62.6864 39.674 62.3827C39.7098 62.079 39.6845 61.7713 39.5996 61.4775C39.2453 60.1382 38.7382 58.8782 38.1523 57.6738C38.1485 57.6662 38.1377 57.6629 38.1338 57.6553C36.3712 54.0424 33.6207 51.0895 30.3408 48.749C32.4379 48.6714 35.5492 47.9229 36.6958 48.4243C38.9734 49.4171 40.1925 51.3195 41.1304 54.8721C41.2013 55.1695 41.331 55.4497 41.5118 55.6963C41.6926 55.9429 41.9209 56.1508 42.1833 56.3078C42.4456 56.4649 42.7367 56.5679 43.0394 56.6108C43.3422 56.6538 43.6504 56.6357 43.9461 56.5578C44.2417 56.4799 44.5188 56.3436 44.7611 56.157C45.0033 55.9704 45.2058 55.7373 45.3566 55.4713C45.5074 55.2054 45.6036 54.9119 45.6394 54.6083C45.6751 54.3046 45.6498 53.9969 45.5649 53.7031C44.4515 49.4861 42.3604 45.8942 38.5234 44.2217C36.9445 43.5336 35.1165 43.2445 33.1055 43.1826C35.447 42.142 37.9226 41.4699 40.5181 41.4941ZM31.6118 55.5215C32.0625 56.1024 32.488 56.6998 32.8735 57.3306C32.4894 56.7022 32.0623 56.1021 31.6118 55.5215ZM133.672 55.6514C134.136 55.7274 135.191 56.4993 135.759 58.2212C135.883 58.5964 135.587 59.2686 135.657 59.7056C135.245 59.9573 134.779 60.7888 134.414 60.9023C133.079 61.3156 132.15 60.9877 131.659 60.5127C131.183 60.0519 130.908 59.3188 131.408 57.8501C131.943 56.8075 132.49 56.1436 132.865 55.8833C133.266 55.6031 133.44 55.6134 133.672 55.6514ZM32.9292 57.4326C33.3154 58.0729 33.6631 58.7322 33.9775 59.418C33.6632 58.7323 33.3141 58.0708 32.9292 57.4326ZM59.75 58.75V63.5H96.4419V58.75H59.75ZM41.585 71.126C37.7514 71.126 34.5437 74.343 34.5435 78.1768C34.5437 82.01 37.7514 85.2183 41.585 85.2183C45.4185 85.2183 48.6263 82.01 48.6265 78.1768C48.6263 74.343 45.4185 71.126 41.585 71.126ZM41.585 75.7183C42.8854 75.7183 44.0434 76.8762 44.0435 78.1768C44.0434 79.4768 42.8854 80.626 41.585 80.626C40.2845 80.626 39.1265 79.4768 39.1265 78.1768C39.1265 76.8762 40.2845 75.7183 41.585 75.7183ZM116.184 122.485L116.128 122.578L115.655 123.088C115.878 122.913 115.965 122.665 116.184 122.485Z" fill="#A2A2A3"/>
</svg>
