<?xml version="1.0" standalone="no"?>
<!DOCTYPE svg PUBLIC "-//W3C//DTD SVG 20010904//EN"
 "http://www.w3.org/TR/2001/REC-SVG-20010904/DTD/svg10.dtd">
<svg version="1.0" xmlns="http://www.w3.org/2000/svg"
 width="700.000000pt" height="700.000000pt" viewBox="0 0 700.000000 700.000000"
 preserveAspectRatio="xMidYMid meet">
<metadata>
Created by potrace 1.14, written by Peter Selinger 2001-2017
</metadata>
<g transform="translate(0.000000,700.000000) scale(0.100000,-0.100000)"
fill="#000000" stroke="none">
<path d="M3534 6373 c-95 -22 -165 -69 -201 -136 -15 -27 -18 -62 -20 -211 -2
-130 -6 -183 -15 -191 -7 -7 -44 -20 -83 -30 -38 -10 -74 -21 -80 -25 -5 -4
-28 -13 -50 -20 -40 -13 -202 -88 -220 -103 -5 -4 -45 -31 -87 -59 -43 -27
-78 -54 -78 -59 0 -5 -5 -9 -11 -9 -11 0 -93 -73 -138 -124 -14 -16 -32 -35
-38 -42 -7 -7 -13 -17 -13 -22 0 -6 -4 -12 -8 -14 -17 -6 -74 -95 -109 -168
-46 -96 -66 -159 -81 -250 -14 -85 -5 -339 14 -420 9 -40 23 -96 25 -100 1 -3
3 -9 4 -15 25 -110 102 -264 177 -358 20 -24 77 -82 137 -137 60 -55 262 -160
346 -180 6 -1 15 -4 20 -5 77 -22 287 -26 475 -10 94 8 271 15 510 20 135 3
201 0 245 -10 33 -8 61 -15 63 -15 1 0 3 0 5 -1 1 0 10 -2 19 -4 25 -5 90 -25
118 -37 14 -6 34 -14 45 -18 29 -11 110 -48 182 -82 34 -16 66 -30 70 -30 4
-1 13 -6 19 -12 7 -6 26 -22 44 -36 18 -14 38 -30 45 -37 23 -22 86 1 139 50
47 45 46 68 -11 197 -14 30 -24 56 -23 58 1 2 -8 12 -19 21 -12 10 -21 23 -21
28 0 18 -165 179 -202 197 -7 3 -26 15 -43 26 -58 37 -190 98 -228 106 -12 2
-33 8 -47 13 -103 39 -361 57 -515 37 -149 -21 -325 -5 -465 40 -8 3 -17 5
-20 5 -3 1 -11 5 -17 11 -7 6 -13 8 -13 4 0 -3 -28 8 -62 25 -194 97 -316 226
-374 394 -26 76 -24 213 5 294 24 67 52 119 86 161 46 58 138 138 195 171 34
18 67 39 73 44 7 6 17 11 22 13 6 1 48 15 95 31 47 16 103 32 125 35 22 4 49
9 60 13 23 7 186 12 198 6 4 -3 36 -6 70 -8 86 -6 122 -12 146 -24 11 -6 24
-10 28 -9 18 5 224 -82 243 -102 3 -3 21 -17 40 -30 49 -34 140 -121 140 -134
0 -7 9 -18 20 -26 11 -8 20 -19 20 -26 0 -16 60 -67 104 -88 52 -25 131 -42
181 -41 60 2 153 25 170 41 8 8 16 13 19 12 11 -7 80 61 96 97 44 92 34 141
-49 252 -94 126 -134 163 -327 300 -54 40 -291 155 -324 158 -3 1 -30 9 -60
20 -30 10 -59 20 -65 21 -5 1 -32 7 -60 14 -62 15 -108 21 -162 24 -23 1 -45
5 -49 9 -4 4 -8 82 -9 175 -1 172 -4 187 -47 236 -10 11 -18 23 -18 28 0 4 -6
8 -13 8 -8 0 -22 9 -32 20 -10 11 -26 20 -35 20 -9 0 -20 3 -24 8 -4 4 -11 7
-14 8 -4 0 -23 4 -42 8 -54 13 -156 12 -216 -1z"/>
<path d="M2499 3805 c-3 -2 -16 -6 -29 -8 -59 -11 -134 -79 -112 -102 4 -4 7
-10 8 -13 5 -55 59 -167 109 -231 103 -131 261 -242 425 -300 36 -13 72 -26
80 -29 18 -6 18 -6 90 -21 131 -26 298 -33 430 -16 130 16 286 9 388 -19 29
-8 55 -15 57 -15 23 -4 58 -17 105 -39 19 -8 37 -16 40 -17 20 -5 80 -40 80
-47 0 -4 5 -8 11 -8 15 0 93 -63 138 -109 72 -77 136 -195 148 -276 10 -67 4
-187 -9 -201 -4 -3 -4 -12 -1 -20 3 -8 1 -14 -4 -14 -5 0 -10 -6 -10 -14 0
-23 -25 -76 -36 -76 -6 0 -8 -3 -4 -6 13 -14 -63 -106 -152 -185 -77 -68 -263
-157 -359 -172 -17 -3 -34 -7 -39 -10 -8 -5 -119 -18 -188 -21 -22 -2 -50 1
-62 5 -13 5 -23 5 -23 0 0 -4 -35 -2 -77 5 -42 8 -79 11 -81 9 -3 -3 -11 0
-19 6 -7 6 -13 9 -13 6 0 -3 -33 6 -72 19 -87 30 -186 77 -248 120 -36 25
-180 174 -180 186 0 10 -46 57 -82 83 -68 51 -240 63 -342 24 -73 -27 -145
-96 -165 -156 -16 -47 -8 -125 15 -147 8 -8 14 -19 14 -23 0 -5 9 -19 20 -31
12 -12 19 -22 16 -22 -6 0 46 -59 104 -119 37 -39 86 -80 175 -149 53 -41 231
-136 315 -167 25 -9 54 -21 65 -25 27 -12 88 -30 117 -35 13 -3 34 -7 48 -10
14 -4 34 -8 45 -10 11 -2 29 -6 40 -9 11 -2 23 -5 28 -5 4 -1 7 -74 7 -163 0
-193 6 -220 70 -285 28 -28 120 -73 165 -79 49 -7 158 -7 196 0 88 18 167 67
206 129 26 41 27 46 28 216 2 162 3 175 21 182 10 3 22 5 27 2 4 -2 7 -1 7 4
0 4 10 8 23 9 23 1 108 19 115 24 1 2 5 3 10 4 4 1 22 6 40 10 17 4 32 12 32
18 0 6 3 9 6 5 7 -6 78 20 164 60 55 27 191 103 200 113 3 3 31 24 62 47 115
86 239 224 303 338 42 75 65 122 68 142 1 10 6 23 9 29 7 10 18 53 34 134 9
43 9 266 1 340 -15 123 -22 166 -41 231 -17 55 -56 149 -70 168 -5 7 -11 20
-12 29 -2 8 -6 18 -11 21 -4 3 -21 24 -38 46 -41 56 -124 136 -179 174 -77 51
-246 127 -326 146 -8 2 -30 8 -47 14 -18 5 -33 8 -33 6 0 -3 -12 0 -27 6 -16
6 -41 12 -58 15 -16 2 -48 6 -70 10 -48 8 -84 12 -188 18 -43 3 -82 8 -87 11
-6 4 -10 3 -10 -2 0 -4 -35 -8 -78 -9 -42 0 -108 -4 -147 -8 -96 -9 -231 -17
-351 -20 -56 -2 -106 -6 -113 -10 -6 -4 -11 -4 -11 1 0 4 -21 8 -48 8 -70 -1
-148 13 -227 41 -38 13 -75 26 -80 27 -15 4 -89 43 -132 70 -21 13 -41 25 -46
25 -4 1 -20 13 -35 27 -15 14 -30 25 -33 25 -3 0 -19 11 -35 26 -34 29 -60 45
-65 39z"/>
</g>
</svg>
