<svg width="153" height="148" viewBox="0 0 153 148" fill="none" xmlns="http://www.w3.org/2000/svg">
<path d="M149.482 142.206H147.116C145.595 142.206 144.412 143.389 144.412 144.91C144.412 146.431 145.595 147.613 147.116 147.613H149.482C151.003 147.613 152.186 146.431 152.186 144.91C152.186 143.389 151.003 142.206 149.482 142.206ZM139.512 142.206H136.808V70.3857C136.808 68.8648 135.625 67.6819 134.104 67.6819C132.583 67.6819 131.4 68.8648 131.4 70.3857V142.206H115.346V34.0531H131.4V52.8109C131.4 54.3318 132.583 55.5147 134.104 55.5147C135.625 55.5147 136.808 54.3318 136.808 52.8109V31.3493C136.808 29.8284 135.625 28.6455 134.104 28.6455H112.643C111.122 28.6455 109.939 29.8284 109.939 31.3493V142.206H105.376V55.6837C105.376 54.1628 104.193 52.9799 102.672 52.9799H81.0417C79.5208 52.9799 78.3379 54.1628 78.3379 55.6837V142.206H73.7752V80.187C73.7752 78.6661 72.5923 77.4832 71.0714 77.4832H49.6098C48.0889 77.4832 46.906 78.6661 46.906 80.187V142.206H42.3433V101.987C42.3433 100.466 41.1604 99.2827 39.6395 99.2827H18.178C16.6571 99.2827 15.4741 100.466 15.4741 101.987V142.206H2.80001C1.27911 142.206 0.0961914 143.389 0.0961914 144.91C0.0961914 146.431 1.27911 147.613 2.80001 147.613H139.512C141.033 147.613 142.216 146.431 142.216 144.91C142.216 143.389 141.033 142.206 139.512 142.206ZM83.7455 58.3875H99.7994V142.206H83.7455V58.3875ZM52.3136 82.8908H68.3676V142.206H52.3136V82.8908ZM20.8818 104.69H36.9357V142.206H20.8818V104.69Z" fill="#A2A2A3"/>
<path d="M134.104 58.0499C132.583 58.0499 131.4 59.2328 131.4 60.7537V63.2885C131.4 64.8094 132.583 65.9923 134.104 65.9923C135.625 65.9923 136.808 64.8094 136.808 63.2885V60.7537C136.808 59.2328 135.625 58.0499 134.104 58.0499ZM25.2755 79.1734C25.7824 79.1734 26.2894 79.0045 26.6274 78.8355C48.5959 65.8233 78.1689 45.0378 98.7855 18.1686L103.179 21.2104C104.869 22.3933 107.066 21.2104 107.235 19.3515L108.587 2.79063C108.756 0.762766 106.728 -0.589142 104.869 0.255801L89.8291 7.35332C87.9702 8.19826 87.8012 10.7331 89.4911 11.747L94.2228 15.1268C73.9442 41.32 45.2161 61.4296 23.7546 74.2728C22.4027 75.1177 22.0647 76.6386 22.7407 77.9905C23.4166 78.6665 24.4305 79.1734 25.2755 79.1734ZM12.0944 86.6089C12.6013 86.6089 12.9393 86.44 13.4463 86.271C15.4741 85.257 17.84 83.9051 20.2058 82.5532C21.5577 81.8773 21.8957 80.1874 21.2198 78.8355C20.5438 77.4836 18.8539 77.1456 17.502 77.8215C14.9672 79.1734 12.7703 80.5254 10.7425 81.5393C9.39056 82.2152 8.88359 83.9051 9.55955 85.257C10.2355 86.102 11.0804 86.6089 12.0944 86.6089ZM2.80001 91.3406C3.13798 91.3406 3.64495 91.3406 3.98293 91.1716C3.98293 91.1716 4.65888 90.8337 6.01079 90.1577C7.3627 89.4818 7.86966 87.7919 7.19371 86.44C6.51775 85.088 4.82787 84.5811 3.47596 85.257C2.29304 85.933 1.61709 86.102 1.61709 86.102C0.26518 86.7779 -0.410774 88.2988 0.26518 89.6507C0.772146 90.6647 1.78608 91.3406 2.80001 91.3406Z" fill="#A2A2A3"/>
</svg>
