<svg width="22" height="22" viewBox="0 0 22 22" fill="none" xmlns="http://www.w3.org/2000/svg">
<mask id="path-1-inside-1_503_5628" fill="white">
<path d="M1.94503 12.3334H16.8384L10.3317 18.84C9.81169 19.36 9.81169 20.2134 10.3317 20.7334C10.8517 21.2534 11.6917 21.2534 12.2117 20.7334L20.9984 11.9467C21.5184 11.4267 21.5184 10.5867 20.9984 10.0667L12.225 1.26669C11.9759 1.01702 11.6377 0.876709 11.285 0.876709C10.9323 0.876709 10.5941 1.01702 10.345 1.26669C9.82503 1.78669 9.82503 2.62669 10.345 3.14669L16.8384 9.66669H1.94503C1.21169 9.66669 0.611694 10.2667 0.611694 11C0.611694 11.7334 1.21169 12.3334 1.94503 12.3334Z"/>
</mask>
<path d="M16.8384 12.3334L28.152 23.6472L55.4662 -3.6666L16.8384 -3.6666V12.3334ZM10.3317 18.84L21.6453 30.1538L21.6453 30.1538L10.3317 18.84ZM10.3317 20.7334L21.6454 9.41969L21.6453 9.41958L10.3317 20.7334ZM12.2117 20.7334L23.5254 32.0471L23.5254 32.0471L12.2117 20.7334ZM20.9984 11.9467L9.68469 0.632992L9.68469 0.632992L20.9984 11.9467ZM20.9984 10.0667L9.66757 21.3633L9.67613 21.3718L9.68469 21.3804L20.9984 10.0667ZM12.225 1.26669L23.5558 -10.0299L23.5516 -10.0341L12.225 1.26669ZM10.345 1.26669L21.659 12.5801L21.6653 12.5738L21.6716 12.5675L10.345 1.26669ZM10.345 3.14669L21.6818 -8.14387L21.6704 -8.15529L21.659 -8.16669L10.345 3.14669ZM16.8384 9.66669V25.6667H55.3544L28.1752 -1.62387L16.8384 9.66669ZM1.94503 28.3334H16.8384V-3.6666H1.94503V28.3334ZM5.52478 1.01961L-0.981922 7.52621L21.6453 30.1538L28.152 23.6472L5.52478 1.01961ZM-0.981899 7.52618C-7.75044 14.2946 -7.75044 25.2788 -0.981899 32.0472L21.6453 9.41958C27.3738 15.148 27.3738 24.4254 21.6453 30.1538L-0.981899 7.52618ZM-0.982008 32.0471C5.78638 38.8155 16.757 38.8155 23.5254 32.0471L0.897992 9.41969C6.62638 3.6913 15.917 3.6913 21.6454 9.41969L-0.982008 32.0471ZM23.5254 32.0471L32.3121 23.2604L9.68469 0.632992L0.897991 9.41969L23.5254 32.0471ZM32.3121 23.2604C39.0805 16.492 39.0805 5.52138 32.3121 -1.24701L9.68469 21.3804C3.9563 15.652 3.9563 6.36138 9.68469 0.632992L32.3121 23.2604ZM32.3292 -1.22986L23.5558 -10.0299L0.894173 12.5633L9.66757 21.3633L32.3292 -1.22986ZM23.5516 -10.0341C20.3008 -13.2924 15.8873 -15.1233 11.285 -15.1233V16.8767C7.38809 16.8767 3.65103 15.3264 0.89837 12.5675L23.5516 -10.0341ZM11.285 -15.1233C6.68267 -15.1233 2.26922 -13.2924 -0.98163 -10.0341L21.6716 12.5675C18.919 15.3264 15.1819 16.8767 11.285 16.8767V-15.1233ZM-0.969034 -10.0467C-7.73696 -3.27838 -7.73696 7.69176 -0.969034 14.4601L21.659 -8.16669C27.387 -2.43838 27.387 6.85176 21.659 12.5801L-0.969034 -10.0467ZM-0.991811 14.4372L5.50159 20.9572L28.1752 -1.62387L21.6818 -8.14387L-0.991811 14.4372ZM16.8384 -6.33331H1.94503V25.6667H16.8384V-6.33331ZM1.94503 -6.33331C-7.62477 -6.33331 -15.3883 1.43005 -15.3883 11H16.6117C16.6117 19.1033 10.0482 25.6667 1.94503 25.6667V-6.33331ZM-15.3883 11C-15.3883 20.5694 -7.62539 28.3334 1.94503 28.3334V-3.6666C10.0488 -3.6666 16.6117 2.89737 16.6117 11H-15.3883Z" fill="#BABABA" mask="url(#path-1-inside-1_503_5628)"/>
</svg>
